HIERARCHY
ROOT Hips
{
    OFFSET   0.000000   0.000000   0.000000
    CHANNELS 6 Xposition Yposition Zposition Zrotation Xrotation Yrotation
    JOINT Chest
    {
        OFFSET   0.000000   8.007230   0.000000
        CHANNELS 3 Zrotation Xrotation Yrotation
        JOINT Chest2
        {
            OFFSET   0.000000  22.077100   0.000000
            CHANNELS 3 Zrotation Xrotation Yrotation
            JOINT Neck
            {
                OFFSET   0.000000  23.255100   0.000000
                CHANNELS 3 Zrotation Xrotation Yrotation
                JOINT Head
                {
                    OFFSET   0.000000  14.370100   1.956600
                    CHANNELS 3 Zrotation Xrotation Yrotation
                    End Site
                    {
                        OFFSET   0.000000  19.566000   0.000000
                    }
                }
            }
            JOINT LeftCollar
            {
                OFFSET   3.911900  19.017000  -0.467063
                CHANNELS 3 Zrotation Xrotation Yrotation
                JOINT LeftShoulder
                {
                    OFFSET  10.383700   0.000000   0.000000
                    CHANNELS 3 Zrotation Xrotation Yrotation
                    JOINT LeftElbow
                    {
                        OFFSET  26.662100   0.001193   0.000980
                        CHANNELS 3 Zrotation Xrotation Yrotation
                        JOINT LeftWrist
                        {
                            OFFSET  28.869000  -0.000059  -0.000082
                            CHANNELS 3 Zrotation Xrotation Yrotation
                            JOINT LeftFinger0
                            {
                                OFFSET   2.044650  -2.323450   3.252850
                                CHANNELS 3 Zrotation Xrotation Yrotation
                                JOINT LeftFinger01
                                {
                                    OFFSET   3.088130   0.000000   0.000000
                                    CHANNELS 3 Zrotation Xrotation Yrotation
                                    JOINT LeftFinger02
                                    {
                                        OFFSET   2.639460   0.000000   0.000000
                                        CHANNELS 3 Zrotation Xrotation Yrotation
                                        End Site
                                        {
                                            OFFSET   2.582190   0.000000   0.000000
                                        }
                                    }
                                }
                            }
                            JOINT LeftFinger1
                            {
                                OFFSET   8.364480   0.000000   3.252850
                                CHANNELS 3 Zrotation Xrotation Yrotation
                                JOINT LeftFinger11
                                {
                                    OFFSET   4.646930   0.000000   0.000000
                                    CHANNELS 3 Zrotation Xrotation Yrotation
                                    JOINT LeftFinger12
                                    {
                                        OFFSET   2.323470   0.000000   0.000000
                                        CHANNELS 3 Zrotation Xrotation Yrotation
                                        End Site
                                        {
                                            OFFSET   2.273050   0.000000   0.000000
                                        }
                                    }
                                }
                            }
                            JOINT LeftFinger2
                            {
                                OFFSET   8.364490   0.000016   1.078090
                                CHANNELS 3 Zrotation Xrotation Yrotation
                                JOINT LeftFinger21
                                {
                                    OFFSET   5.111610   0.000000   0.000000
                                    CHANNELS 3 Zrotation Xrotation Yrotation
                                    JOINT LeftFinger22
                                    {
                                        OFFSET   2.788150   0.000016   0.000000
                                        CHANNELS 3 Zrotation Xrotation Yrotation
                                        End Site
                                        {
                                            OFFSET   2.727660   0.000000   0.000000
                                        }
                                    }
                                }
                            }
                            JOINT LeftFinger3
                            {
                                OFFSET   7.899780   0.000015  -1.078090
                                CHANNELS 3 Zrotation Xrotation Yrotation
                                JOINT LeftFinger31
                                {
                                    OFFSET   4.646930   0.000000   0.000000
                                    CHANNELS 3 Zrotation Xrotation Yrotation
                                    JOINT LeftFinger32
                                    {
                                        OFFSET   2.323470   0.000000   0.000000
                                        CHANNELS 3 Zrotation Xrotation Yrotation
                                        End Site
                                        {
                                            OFFSET   2.273050   0.000000   0.000000
                                        }
                                    }
                                }
                            }
                            JOINT LeftFinger4
                            {
                                OFFSET   7.435090   0.000000  -3.252850
                                CHANNELS 3 Zrotation Xrotation Yrotation
                                JOINT LeftFinger41
                                {
                                    OFFSET   3.717550   0.000000   0.000000
                                    CHANNELS 3 Zrotation Xrotation Yrotation
                                    JOINT LeftFinger42
                                    {
                                        OFFSET   1.858770   0.000000   0.000000
                                        CHANNELS 3 Zrotation Xrotation Yrotation
                                        End Site
                                        {
                                            OFFSET   1.818440   0.000000   0.000000
                                        }
                                    }
                                }
                            }
                        }
                    }
                }
            }
            JOINT RightCollar
            {
                OFFSET  -3.911910  19.017000  -0.467062
                CHANNELS 3 Zrotation Xrotation Yrotation
                JOINT RightShoulder
                {
                    OFFSET -10.383700   0.000014   0.000000
                    CHANNELS 3 Zrotation Xrotation Yrotation
                    JOINT RightElbow
                    {
                        OFFSET -26.662100   0.001225   0.001091
                        CHANNELS 3 Zrotation Xrotation Yrotation
                        JOINT RightWrist
                        {
                            OFFSET -28.869000  -0.000020  -0.000085
                            CHANNELS 3 Zrotation Xrotation Yrotation
                            JOINT RightFinger0
                            {
                                OFFSET  -2.044650  -2.323490   3.252850
                                CHANNELS 3 Zrotation Xrotation Yrotation
                                JOINT RightFinger01
                                {
                                    OFFSET  -3.088130   0.000000   0.000000
                                    CHANNELS 3 Zrotation Xrotation Yrotation
                                    JOINT RightFinger02
                                    {
                                        OFFSET  -2.639460   0.000000   0.000000
                                        CHANNELS 3 Zrotation Xrotation Yrotation
                                        End Site
                                        {
                                            OFFSET  -2.582190   0.000000   0.000000
                                        }
                                    }
                                }
                            }
                            JOINT RightFinger1
                            {
                                OFFSET  -8.364480   0.000000   3.252850
                                CHANNELS 3 Zrotation Xrotation Yrotation
                                JOINT RightFinger11
                                {
                                    OFFSET  -4.646930   0.000000   0.000000
                                    CHANNELS 3 Zrotation Xrotation Yrotation
                                    JOINT RightFinger12
                                    {
                                        OFFSET  -2.323470   0.000000   0.000000
                                        CHANNELS 3 Zrotation Xrotation Yrotation
                                        End Site
                                        {
                                            OFFSET  -2.273050   0.000000   0.000000
                                        }
                                    }
                                }
                            }
                            JOINT RightFinger2
                            {
                                OFFSET  -8.364480   0.000000   1.078090
                                CHANNELS 3 Zrotation Xrotation Yrotation
                                JOINT RightFinger21
                                {
                                    OFFSET  -5.111620   0.000000   0.000000
                                    CHANNELS 3 Zrotation Xrotation Yrotation
                                    JOINT RightFinger22
                                    {
                                        OFFSET  -2.788160   0.000000   0.000000
                                        CHANNELS 3 Zrotation Xrotation Yrotation
                                        End Site
                                        {
                                            OFFSET  -2.727660   0.000000   0.000000
                                        }
                                    }
                                }
                            }
                            JOINT RightFinger3
                            {
                                OFFSET  -7.899780   0.000000  -1.078090
                                CHANNELS 3 Zrotation Xrotation Yrotation
                                JOINT RightFinger31
                                {
                                    OFFSET  -4.646930   0.000000   0.000000
                                    CHANNELS 3 Zrotation Xrotation Yrotation
                                    JOINT RightFinger32
                                    {
                                        OFFSET  -2.323470   0.000000   0.000000
                                        CHANNELS 3 Zrotation Xrotation Yrotation
                                        End Site
                                        {
                                            OFFSET  -2.273050   0.000000   0.000000
                                        }
                                    }
                                }
                            }
                            JOINT RightFinger4
                            {
                                OFFSET  -7.435090   0.000000  -3.252850
                                CHANNELS 3 Zrotation Xrotation Yrotation
                                JOINT RightFinger41
                                {
                                    OFFSET  -3.717550   0.000000   0.000000
                                    CHANNELS 3 Zrotation Xrotation Yrotation
                                    JOINT RightFinger42
                                    {
                                        OFFSET  -1.858760   0.000000   0.000000
                                        CHANNELS 3 Zrotation Xrotation Yrotation
                                        End Site
                                        {
                                            OFFSET  -1.818440   0.000000   0.000000
                                        }
                                    }
                                }
                            }
                        }
                    }
                }
            }
        }
    }
    JOINT LeftHip
    {
        OFFSET   9.783030   0.000000   0.000000
        CHANNELS 3 Zrotation Xrotation Yrotation
        JOINT LeftKnee
        {
            OFFSET   0.000063 -41.789100   0.000608
            CHANNELS 3 Zrotation Xrotation Yrotation
            JOINT LeftAnkle
            {
                OFFSET   0.000048 -41.133200  -0.000184
                CHANNELS 3 Zrotation Xrotation Yrotation
                JOINT LeftToe
                {
                    OFFSET   0.000000  -6.358960  14.674500
                    CHANNELS 3 Zrotation Xrotation Yrotation
                    End Site
                    {
                        OFFSET   0.000000   0.000000   3.913200
                    }
                }
            }
        }
    }
    JOINT RightHip
    {
        OFFSET  -9.783030   0.000000   0.000000
        CHANNELS 3 Zrotation Xrotation Yrotation
        JOINT RightKnee
        {
            OFFSET   0.000071 -41.789100   0.001239
            CHANNELS 3 Zrotation Xrotation Yrotation
            JOINT RightAnkle
            {
                OFFSET   0.000037 -41.133200  -0.000166
                CHANNELS 3 Zrotation Xrotation Yrotation
                JOINT RightToe
                {
                    OFFSET   0.000000  -6.358960  14.674500
                    CHANNELS 3 Zrotation Xrotation Yrotation
                    End Site
                    {
                        OFFSET   0.000000   0.000000   3.913200
                    }
                }
            }
        }
    }
}
MOTION
Frames: 5
Frame Time:   0.016667
 -0.572029  89.576400   0.539573  -2.812730  -4.749490  -4.490410   0.856631   2.113910   1.551530   1.657340   4.250030   3.074410   0.589273   1.662950  -0.020782   0.959610   3.371090  -0.375511  -4.571750   1.060950  -1.271310 -73.914800  12.742800   5.802160  -2.809160  -5.300120 -16.160800  12.240100 -16.630000   5.048920  36.408400  20.942000 -50.032200 -28.821800   0.005357   0.006172  -9.402210  -0.000497  -0.001789 -23.253600   5.195490 -11.900000 -19.469000  -0.002991  -0.007526 -13.628300   0.003180  -0.004908 -27.180100   2.195990  -4.266880 -28.104700  -0.006340   0.000411 -18.717700   0.005492   0.000286 -25.762300   1.934740  -4.001380 -25.829500  -0.003197  -0.006145 -17.202500   0.002957  -0.005895 -27.631900   1.573230  -3.002240 -41.508300   0.004774  -0.001456 -27.644500   0.002356  -0.000815   7.750050   1.391580   2.618180  71.956300   6.681720  -9.754160   1.779390 -13.990000  10.137500  -5.956460  -0.911494  -0.578891 -43.858500  28.893600  65.156500  17.295500   0.003728  -0.004147   3.647770   0.000264   0.001977  17.024500   2.936160   9.496910  14.128800  -0.001758   0.007378   9.890130  -0.000728   0.005600  19.762400   2.163690   6.022750  19.875800  -0.004336   0.006967  13.237300  -0.003157   0.004710  15.595700   0.774100   2.771090  15.614400  -0.004999   0.008059  10.399200  -0.002503   0.007538  22.884600   1.119630   2.650480  34.365800  -0.000866   0.006573  22.887600  -0.001938   0.003805   1.730990   6.753210   3.581550   1.236500   0.162980   6.535700  -0.967565  -3.122200   1.892670  -0.000000   0.000000   0.000000   4.113300   3.286790  -0.501765  -1.911390   4.851840 -11.675900  -1.359890  -3.700770  -0.207444   0.000000   0.000000  -0.000000
 -0.578628  89.576400   0.548979  -2.812580  -4.748270  -4.490350   0.856571   2.119230   1.555090   1.656950   4.260720   3.081490   0.589267   1.656730  -0.020809   0.959520   3.358550  -0.364113  -4.573790   1.063440  -1.278310 -73.914700  12.752400   5.797460  -2.819980  -5.317640 -16.150900  12.237500 -16.628900   5.043530  36.402700  20.936100 -50.046900 -28.822200   0.005355   0.006179  -9.402340  -0.000500  -0.001788 -23.259400   5.201560 -11.910300 -19.474600  -0.002990  -0.007527 -13.632300   0.003180  -0.004908 -27.181300   2.186730  -4.248890 -28.104700  -0.006334   0.000412 -18.717700   0.005492   0.000288 -25.761800   1.934740  -4.001380 -25.829100  -0.003193  -0.006141 -17.202200   0.002955  -0.005891 -27.631700   1.573230  -3.002240 -41.508100   0.004774  -0.001453 -27.644400   0.002357  -0.000811   7.754820   1.391680   2.618160  71.972700   6.699700  -9.756440   1.781420 -14.001000  10.138000  -5.966630  -0.907051  -0.574768 -43.867700  28.910400  65.179100  17.273100   0.003719  -0.004151   3.636570   0.000266   0.001981  16.998300   2.938860   9.520040  14.107700  -0.001756   0.007377   9.875380  -0.000728   0.005601  19.739100   2.169810   6.036400  19.853000  -0.004338   0.006967  13.222200  -0.003158   0.004711  15.577500   0.779342   2.793190  15.596500  -0.004997   0.008056  10.387300  -0.002503   0.007537  22.869000   1.127730   2.671690  34.342800  -0.000866   0.006569  22.872300  -0.001939   0.003804   1.731160   6.747540   3.581510   1.236580   0.178063   6.535320  -0.969528  -3.139520   1.892670   0.000000   0.000000  -0.000000   4.113350   3.292390  -0.501829  -1.907660   4.851860 -11.675700  -1.359670  -3.707810  -0.207629  -0.000000   0.000000   0.000000
 -0.588919  89.576500   0.565413  -2.812200  -4.744780  -4.490220   0.856436   2.127330   1.560620   1.656270   4.276990   3.092460   0.589228   1.643820  -0.020836   0.959069   3.332440  -0.347859  -4.580240   1.069320  -1.290650 -73.914000  12.762700   5.789100  -2.836160  -5.342300 -16.136100  12.229800 -16.625500   5.029450  36.395200  20.926600 -50.069900 -28.822600   0.005354   0.006190  -9.402510  -0.000506  -0.001787 -23.267900   5.212630 -11.930100 -19.483200  -0.002984  -0.007527 -13.638300   0.003182  -0.004907 -27.182500   2.177200  -4.230550 -28.104700  -0.006322   0.000419 -18.717700   0.005493   0.000296 -25.761300   1.934740  -4.001380 -25.828700  -0.003185  -0.006133 -17.201900   0.002954  -0.005882 -27.631600   1.573230  -3.002240 -41.507900   0.004773  -0.001446 -27.644200   0.002358  -0.000801   7.762650   1.391780   2.618130  71.991100   6.727850  -9.761170   1.784480 -14.017400  10.138700  -5.984720  -0.900298  -0.566135 -43.877500  28.925800  65.203200  17.240300   0.003707  -0.004154   3.620150   0.000268   0.001989  16.970600   2.945740   9.558850  14.086600  -0.001751   0.007375   9.860640  -0.000730   0.005602  19.714900   2.180290   6.060160  19.830300  -0.004346   0.006963  13.207000  -0.003159   0.004711  15.559000   0.787583   2.826220  15.578500  -0.004993   0.008049  10.375300  -0.002503   0.007534  22.853000   1.140240   2.703350  34.319800  -0.000868   0.006561  22.857000  -0.001940   0.003803   1.731330   6.741860   3.581490   1.236650   0.193147   6.534950  -0.972055  -3.156830   1.892670  -0.000000   0.000000  -0.000000   4.113430   3.300720  -0.501953  -1.901340   4.851990 -11.675300  -1.359480  -3.719850  -0.207816   0.000000   0.000000   0.000000
 -0.595504  89.576500   0.580179  -2.811570  -4.738600  -4.490050   0.856242   2.131790   1.564910   1.655640   4.285970   3.100980   0.585527   1.627990  -0.020835   0.955231   3.300390  -0.343400  -4.592170   1.080440  -1.304970 -73.911800  12.763400   5.779360  -2.845340  -5.353340 -16.126400  12.215700 -16.618600   5.008710  36.391300  20.916700 -50.083300 -28.820200   0.005361   0.006200  -9.402600  -0.000516  -0.001794 -23.271200   5.223200 -11.951700 -19.487600  -0.002973  -0.007523 -13.641500   0.003186  -0.004904 -27.182600   2.176890  -4.230150 -28.104700  -0.006309   0.000437 -18.717700   0.005497   0.000307 -25.762600   1.944370  -4.021180 -25.830700  -0.003174  -0.006124 -17.203300   0.002956  -0.005870 -27.630900   1.579870  -3.015070 -41.507900   0.004769  -0.001435 -27.644300   0.002360  -0.000782   7.767250   1.391400   2.620860  71.995200   6.750480  -9.768760   1.787130 -14.023500  10.144300  -6.006230  -0.895503  -0.552216 -43.869500  28.916200  65.201200  17.221100   0.003705  -0.004137   3.610530   0.000270   0.001996  16.977100   2.959800   9.598420  14.094200  -0.001746   0.007372   9.865900  -0.000733   0.005602  19.722000   2.191610   6.087010  19.838800  -0.004358   0.006958  13.212700  -0.003160   0.004711  15.570400   0.794338   2.847820  15.590200  -0.004987   0.008040  10.383000  -0.002505   0.007530  22.866200   1.149760   2.723890  34.339900  -0.000872   0.006550  22.870400  -0.001941   0.003800   1.730180   6.760560   3.582070   1.237140   0.160257   6.535170  -0.972759  -3.146860   1.892690   0.000000   0.000000  -0.000000   4.113460   3.304490  -0.502115  -1.896000   4.853140 -11.675200  -1.359570  -3.730220  -0.207769  -0.000000   0.000000   0.000000
 -0.601563  89.576600   0.595791  -2.810850  -4.731340  -4.489910   0.856049   2.136130   1.567240   1.655020   4.294680   3.105620   0.578590   1.609340  -0.020828   0.947695   3.262580  -0.336662  -4.606960   1.088150  -1.313960 -73.910500  12.764000   5.773290  -2.852150  -5.357240 -16.121600  12.198800 -16.611400   4.979380  36.387000  20.907100 -50.096700 -28.814500   0.005375   0.006210  -9.402640  -0.000527  -0.001802 -23.274900   5.235420 -11.976700 -19.492700  -0.002958  -0.007517 -13.645000   0.003191  -0.004898 -27.182900   2.176850  -4.230090 -28.104900  -0.006291   0.000461 -18.717900   0.005502   0.000321 -25.767700   1.961470  -4.055730 -25.837100  -0.003160  -0.006112 -17.207600   0.002958  -0.005854 -27.630000   1.591330  -3.036800 -41.508300   0.004763  -0.001420 -27.644500   0.002363  -0.000759   7.774130   1.388740   2.639970  71.992700   6.762950  -9.773880   1.790340 -14.032800  10.150000  -6.019820  -0.893018  -0.542807 -43.850600  28.895900  65.183400  17.212300   0.003701  -0.004111   3.606110   0.000272   0.002003  16.992100   2.969670   9.622310  14.107200  -0.001738   0.007367   9.875020  -0.000737   0.005601  19.735400   2.198570   6.103730  19.852700  -0.004375   0.006951  13.221900  -0.003163   0.004710  15.587100   0.798093   2.858500  15.607000  -0.004979   0.008028  10.394200  -0.002507   0.007524  22.883000   1.154880   2.734000  34.365900  -0.000879   0.006535  22.887700  -0.001943   0.003796   1.729500   6.779250   3.582630   1.237630   0.127367   6.535390  -0.973462  -3.136890   1.892710  -0.000000   0.000000   0.000000   4.113420   3.308550  -0.502240  -1.890290   4.854180 -11.675100  -1.359970  -3.740780  -0.207429  -0.000000   0.000000  -0.000000
